<svg width="28" height="28" viewBox="0 0 28 28" fill="none" xmlns="http://www.w3.org/2000/svg">
<g clip-path="url(#clip0_347_4872)">
<path opacity="0.955" fill-rule="evenodd" clip-rule="evenodd" d="M17.2699 0.355469C17.9177 0.400121 18.197 0.746473 18.1077 1.39453C17.2927 5.69942 16.4639 10.0015 15.6213 14.3008C15.1905 14.0756 14.7311 13.9571 14.2429 13.9453C15.0078 9.65606 15.8096 5.36307 16.6483 1.06641C16.6968 0.680411 16.904 0.443432 17.2699 0.355469Z" fill="#54B435"/>
<path opacity="0.936" fill-rule="evenodd" clip-rule="evenodd" d="M5.05402 3.36328C7.9072 3.82313 10.7539 4.32443 13.5944 4.86719C13.9314 5.14146 13.9494 5.43312 13.6484 5.74219C13.5385 5.7972 13.4214 5.82455 13.2971 5.82422C10.565 5.35593 7.83531 4.87285 5.10808 4.375C4.7688 4.24437 4.65169 3.99827 4.75673 3.63672C4.85023 3.53271 4.94932 3.44156 5.05402 3.36328Z" fill="#54B435"/>
<path opacity="0.935" fill-rule="evenodd" clip-rule="evenodd" d="M7.4863 6.31641C9.29167 6.58738 11.0934 6.88816 12.8916 7.21875C13.261 7.30045 13.4142 7.52828 13.351 7.90234C13.1791 8.21592 12.9179 8.31616 12.5673 8.20312C10.8529 7.90727 9.14129 7.59735 7.43225 7.27344C7.06529 6.9282 7.08334 6.60915 7.4863 6.31641Z" fill="#54B435"/>
<path opacity="0.935" fill-rule="evenodd" clip-rule="evenodd" d="M5.91874 8.50391C8.14134 8.83006 10.3575 9.2038 12.5672 9.625C12.9293 9.85398 12.9834 10.1457 12.7294 10.5C12.6206 10.5687 12.5035 10.6144 12.378 10.6367C10.1824 10.2528 7.99323 9.84266 5.81064 9.40625C5.65832 9.2237 5.61329 9.01409 5.67551 8.77734C5.73091 8.65774 5.81199 8.56658 5.91874 8.50391Z" fill="#54B435"/>
<path opacity="0.936" fill-rule="evenodd" clip-rule="evenodd" d="M2.78374 8.61328C2.96707 8.62515 3.12022 8.6981 3.24319 8.83203C3.30329 9.09032 3.33032 9.35462 3.32427 9.625C3.31526 9.85288 3.30625 10.0807 3.29724 10.3086C3.01761 10.7207 2.71131 10.7389 2.37835 10.3633C2.34231 9.8893 2.34231 9.41538 2.37835 8.94141C2.46168 8.75591 2.59681 8.64653 2.78374 8.61328Z" fill="#54B435"/>
<path opacity="0.935" fill-rule="evenodd" clip-rule="evenodd" d="M0.729731 10.582C1.18053 10.573 1.63097 10.582 2.08105 10.6094C2.51347 10.9193 2.51347 11.2291 2.08105 11.5391C1.63061 11.5755 1.18017 11.5755 0.729731 11.5391C0.301678 11.2204 0.301678 10.9014 0.729731 10.582Z" fill="#54B435"/>
<path opacity="0.936" fill-rule="evenodd" clip-rule="evenodd" d="M3.59446 10.582C4.04526 10.573 4.4957 10.582 4.94578 10.6094C5.23041 10.7858 5.31149 11.0319 5.18902 11.3477C5.1234 11.4324 5.04232 11.4961 4.94578 11.5391C4.47732 11.5755 4.00887 11.5755 3.54041 11.5391C3.17346 11.1938 3.19147 10.8748 3.59446 10.582Z" fill="#54B435"/>
<path opacity="0.936" fill-rule="evenodd" clip-rule="evenodd" d="M2.72969 11.5117C2.99249 11.4977 3.18168 11.607 3.29724 11.8398C3.33328 12.2955 3.33328 12.7513 3.29724 13.207C2.99094 13.6445 2.68465 13.6445 2.37835 13.207C2.34231 12.7513 2.34231 12.2955 2.37835 11.8398C2.45597 11.6789 2.57309 11.5696 2.72969 11.5117Z" fill="#54B435"/>
<path opacity="0.938" fill-rule="evenodd" clip-rule="evenodd" d="M22.6752 12.0039C23.4945 11.9851 23.8818 12.3861 23.8373 13.207C23.5907 13.9104 23.1133 14.1383 22.4049 13.8906C21.9657 13.5975 21.8126 13.1873 21.9455 12.6601C22.0986 12.3316 22.3418 12.1129 22.6752 12.0039Z" fill="#54B435"/>
<path opacity="0.906" fill-rule="evenodd" clip-rule="evenodd" d="M4.24322 14.4102C4.37074 14.4471 4.49686 14.4927 4.62159 14.5469C4.86483 14.793 5.10806 15.0391 5.3513 15.2852C5.56054 15.6101 5.51551 15.8926 5.21617 16.1328C5.02891 16.1775 4.84874 16.1592 4.67564 16.0781C4.39637 15.7956 4.1171 15.513 3.83782 15.2305C3.68769 14.8051 3.82282 14.5316 4.24322 14.4102Z" fill="#54B435"/>
<path opacity="0.906" fill-rule="evenodd" clip-rule="evenodd" d="M7.10789 14.4102C7.60161 14.5326 7.73674 14.8242 7.51329 15.2852C7.25205 15.5495 6.99076 15.8138 6.72952 16.0781C6.07186 16.2513 5.82863 16.0052 5.99981 15.3398C6.26105 15.0755 6.52234 14.8112 6.78358 14.5469C6.89768 14.5007 7.00579 14.4551 7.10789 14.4102Z" fill="#54B435"/>
<path opacity="0.955" fill-rule="evenodd" clip-rule="evenodd" d="M13.9186 14.8477C15.3321 14.856 16.2781 15.5304 16.7563 16.8711C16.7985 16.9501 16.7895 17.023 16.7293 17.0898C15.6774 17.4469 14.6144 17.4925 13.5402 17.2266C13.0097 17.05 12.5772 16.7401 12.2429 16.2969C12.5666 15.5218 13.1252 15.0388 13.9186 14.8477Z" fill="#54B435"/>
<path opacity="0.949" fill-rule="evenodd" clip-rule="evenodd" d="M25.756 14.9023C26.9339 14.9544 27.3753 15.556 27.0803 16.707C26.614 17.3932 26.0104 17.5481 25.2695 17.1719C24.7605 16.7055 24.6434 16.1495 24.9182 15.5039C25.1323 15.2044 25.4116 15.0038 25.756 14.9023Z" fill="#54B435"/>
<path opacity="0.9" fill-rule="evenodd" clip-rule="evenodd" d="M4.83783 16.5977C5.39736 16.6079 5.58657 16.8813 5.40539 17.418C5.12611 17.7005 4.84684 17.9831 4.56757 18.2656C4.0302 18.4505 3.76894 18.2591 3.7838 17.6914C4.0736 17.2616 4.42494 16.897 4.83783 16.5977Z" fill="#54B435"/>
<path opacity="0.896" fill-rule="evenodd" clip-rule="evenodd" d="M6.29714 16.5977C6.47519 16.5845 6.63734 16.63 6.78361 16.7344C7.02685 16.9805 7.27008 17.2266 7.51332 17.4727C7.70488 17.761 7.67786 18.0253 7.43224 18.2656C7.23403 18.375 7.03587 18.375 6.83766 18.2656C6.55837 17.9831 6.27914 17.7005 5.99985 17.418C5.82893 17.0359 5.92801 16.7625 6.29714 16.5977Z" fill="#54B435"/>
<path opacity="0.965" fill-rule="evenodd" clip-rule="evenodd" d="M11.7564 17.1992C12.8659 18.1372 14.1451 18.4927 15.5941 18.2656C16.0483 18.2139 16.4897 18.1136 16.9184 17.9648C16.9364 17.9831 16.9545 18.0013 16.9725 18.0195C17.0764 18.6374 17.1034 19.2573 17.0536 19.8789C16.308 20.3703 15.8486 21.0631 15.6752 21.957C14.2346 22.7584 13.7481 23.9615 14.2158 25.5664C14.3124 25.7894 14.4295 25.999 14.5671 26.1953C13.3613 27.0273 12.028 27.4648 10.5672 27.5078C11.4146 26.9425 12.1623 26.2589 12.8104 25.457C12.9367 25.0821 12.8016 24.8633 12.405 24.8008C12.3078 24.805 12.2177 24.8323 12.1348 24.8828C11.1738 26.0113 10.0297 26.8954 8.70242 27.5352C7.63082 27.4423 6.57679 27.2509 5.54033 26.9609C7.43775 26.2838 9.18543 25.3359 10.7834 24.1172C11.5195 23.5003 12.1591 22.7985 12.7023 22.0117C12.9102 21.6221 12.802 21.367 12.378 21.2461C12.1929 21.269 12.0488 21.3602 11.9456 21.5195C11.1726 22.648 10.2087 23.5686 9.05376 24.2812C7.53742 25.2305 5.91584 25.9414 4.18901 26.4141C4.04001 26.446 3.89586 26.4277 3.75659 26.3594C3.10562 26.0671 2.51104 25.6934 1.97285 25.2383C3.65499 24.9596 5.27657 24.4765 6.8376 23.7891C7.08521 23.6867 7.31045 23.55 7.51326 23.3789C7.65315 23.0033 7.52704 22.7662 7.13489 22.668C5.2739 23.5659 3.31899 24.1492 1.27017 24.418C1.11119 24.3575 0.994075 24.2481 0.918823 24.0898C0.746471 23.7867 0.611339 23.4677 0.513428 23.1328C0.531445 23.1055 0.549465 23.0781 0.56748 23.0508C3.34874 22.6627 5.96129 21.7786 8.40513 20.3984C9.28483 19.8553 10.0866 19.2081 10.8105 18.457C11.1582 18.0601 11.4735 17.6408 11.7564 17.1992Z" fill="#54B435"/>
<path opacity="0.979" fill-rule="evenodd" clip-rule="evenodd" d="M22.1347 19.7148C23.6919 19.7871 24.6559 20.5892 25.0265 22.1211C25.0921 22.2058 25.1732 22.2696 25.2698 22.3125C26.5741 22.5926 27.2138 23.4038 27.1886 24.7461C26.9815 25.9763 26.2609 26.6325 25.0265 26.7148C24.5249 26.6794 24.0565 26.5336 23.6211 26.2773C23.3333 26.4037 23.0901 26.5951 22.8914 26.8516C22.1245 27.4466 21.2596 27.6654 20.2969 27.5078C19.4334 27.3263 18.7487 26.8705 18.2429 26.1406C18.1687 26.1186 18.0967 26.0913 18.0267 26.0586C17.0616 26.6336 16.1697 26.5425 15.3511 25.7852C14.7048 24.8323 14.7678 23.9299 15.5403 23.0781C15.7624 22.8928 16.0146 22.7653 16.297 22.6953C16.3961 22.6315 16.4772 22.5495 16.5402 22.4492C16.5965 21.1985 17.2361 20.5058 18.4591 20.3711C18.9197 20.4037 19.3341 20.5587 19.7023 20.8359C19.8104 20.8724 19.9185 20.8724 20.0266 20.8359C20.2789 20.6172 20.5311 20.3984 20.7834 20.1797C21.2062 19.9187 21.6566 19.7637 22.1347 19.7148ZM22.0266 20.7539C23.0705 20.7166 23.7191 21.2087 23.9725 22.2305C23.855 22.6615 23.6028 22.78 23.2157 22.5859C23.1064 22.382 23.0073 22.1723 22.9185 21.957C22.6712 21.7027 22.3739 21.6207 22.0266 21.7109C21.8121 21.8825 21.5778 22.0192 21.3239 22.1211C20.9564 22.0524 20.8213 21.8336 20.9185 21.4648C21.2106 21.0943 21.58 20.8574 22.0266 20.7539Z" fill="#54B435"/>
</g>
<defs>
<clipPath id="clip0_347_4872">
<rect width="27.675" height="28" fill="white"/>
</clipPath>
</defs>
</svg>
