<svg width="68" height="86" viewBox="0 0 68 86" fill="none" xmlns="http://www.w3.org/2000/svg">
<path d="M68.0002 43.0002C36.1719 44.5162 35.1986 45.745 34.0002 86.0004C32.8015 45.745 31.8288 44.5162 0.000488281 43.0002C31.8288 41.4845 32.8015 40.2557 34.0002 0.0012207C35.1986 40.2566 36.1704 41.4854 68.0002 43.0011" fill="white"/>
<path d="M55.7714 24.1973C49.244 24.5506 49.0447 24.8372 48.7988 34.2205C48.5529 24.8372 48.3536 24.55 41.8262 24.1973C48.3536 23.8441 48.5529 23.5575 48.7988 14.1742C49.0447 23.5575 49.244 23.8447 55.7714 24.1973Z" fill="white"/>
<path d="M26.1102 59.4426C19.5828 59.7556 19.3835 60.0092 19.1376 68.318C18.892 60.0083 18.6927 59.7556 12.1653 59.4426C18.6927 59.1296 18.892 58.876 19.1376 50.5671C19.3835 58.8768 19.5828 59.1296 26.1102 59.4426Z" fill="white"/>
</svg>
